<mxfile host="app.diagrams.net" modified="2021-03-31T12:58:55.880Z" agent="5.0 (Macintosh; Intel Mac OS X 10_15_7) AppleWebKit/537.36 (KHTML, like Gecko) Chrome/89.0.4389.90 Safari/537.36" etag="S0qPKfPVqAz72cG3nxBV" version="14.5.3" type="github">
  <diagram name="Page-1" id="929967ad-93f9-6ef4-fab6-5d389245f69c">
    <mxGraphModel dx="1426" dy="737" grid="1" gridSize="10" guides="1" tooltips="1" connect="1" arrows="1" fold="1" page="1" pageScale="1.5" pageWidth="1169" pageHeight="826" background="none" math="0" shadow="0">
      <root>
        <mxCell id="0" style=";html=1;" />
        <mxCell id="1" style=";html=1;" parent="0" />
        <mxCell id="1672d66443f91eb5-1" value="&lt;p style=&quot;margin: 4px 0px 0px 10px; text-align: left; font-size: 16px;&quot;&gt;&lt;b style=&quot;font-size: 16px;&quot;&gt;A股行情实盘数据部署&lt;/b&gt;&lt;/p&gt;" style="html=1;strokeWidth=1;shape=mxgraph.sysml.package;html=1;overflow=fill;whiteSpace=wrap;fillColor=none;gradientColor=none;fontSize=16;align=center;labelX=327.64;" parent="1" vertex="1">
          <mxGeometry x="317" y="295" width="923" height="565" as="geometry" />
        </mxCell>
        <mxCell id="BeP2GAJUtShJ0mvzGdoW-6" value="" style="rounded=0;whiteSpace=wrap;html=1;fontSize=16;labelBorderColor=#000000;" vertex="1" parent="1">
          <mxGeometry x="520" y="420" width="520" height="380" as="geometry" />
        </mxCell>
        <mxCell id="1672d66443f91eb5-13" style="edgeStyle=orthogonalEdgeStyle;rounded=0;html=1;jettySize=auto;orthogonalLoop=1;endArrow=circlePlus;endFill=0;" parent="1" target="1672d66443f91eb5-2" edge="1">
          <mxGeometry relative="1" as="geometry">
            <Array as="points">
              <mxPoint x="477" y="485" />
              <mxPoint x="517" y="485" />
            </Array>
            <mxPoint x="477" y="535" as="sourcePoint" />
          </mxGeometry>
        </mxCell>
        <mxCell id="1672d66443f91eb5-21" style="edgeStyle=none;rounded=0;html=1;dashed=1;endArrow=none;endFill=0;jettySize=auto;orthogonalLoop=1;" parent="1" source="1672d66443f91eb5-6" edge="1">
          <mxGeometry relative="1" as="geometry">
            <mxPoint x="1066.5833333333335" y="655" as="targetPoint" />
          </mxGeometry>
        </mxCell>
        <mxCell id="1672d66443f91eb5-16" style="edgeStyle=orthogonalEdgeStyle;rounded=0;html=1;endArrow=circlePlus;endFill=0;jettySize=auto;orthogonalLoop=1;entryX=0.25;entryY=1;" parent="1" source="1672d66443f91eb5-7" edge="1">
          <mxGeometry relative="1" as="geometry">
            <Array as="points">
              <mxPoint x="627" y="635" />
              <mxPoint x="677" y="635" />
            </Array>
            <mxPoint x="677" y="605" as="targetPoint" />
          </mxGeometry>
        </mxCell>
        <mxCell id="1672d66443f91eb5-17" style="edgeStyle=orthogonalEdgeStyle;rounded=0;html=1;endArrow=circlePlus;endFill=0;jettySize=auto;orthogonalLoop=1;entryX=0.5;entryY=1;" parent="1" source="1672d66443f91eb5-8" edge="1">
          <mxGeometry relative="1" as="geometry">
            <Array as="points">
              <mxPoint x="817" y="635" />
              <mxPoint x="717" y="635" />
            </Array>
            <mxPoint x="717" y="605" as="targetPoint" />
          </mxGeometry>
        </mxCell>
        <mxCell id="1672d66443f91eb5-18" style="edgeStyle=orthogonalEdgeStyle;rounded=0;html=1;endArrow=circlePlus;endFill=0;jettySize=auto;orthogonalLoop=1;entryX=0.75;entryY=1;" parent="1" source="1672d66443f91eb5-9" edge="1">
          <mxGeometry relative="1" as="geometry">
            <Array as="points">
              <mxPoint x="1017" y="625" />
              <mxPoint x="757" y="625" />
            </Array>
            <mxPoint x="757" y="605" as="targetPoint" />
          </mxGeometry>
        </mxCell>
        <mxCell id="1672d66443f91eb5-22" style="edgeStyle=none;rounded=0;html=1;dashed=1;endArrow=none;endFill=0;jettySize=auto;orthogonalLoop=1;" parent="1" target="1672d66443f91eb5-3" edge="1">
          <mxGeometry relative="1" as="geometry">
            <mxPoint x="1017" y="655" as="sourcePoint" />
          </mxGeometry>
        </mxCell>
        <mxCell id="1672d66443f91eb5-14" style="edgeStyle=orthogonalEdgeStyle;rounded=0;html=1;endArrow=circlePlus;endFill=0;jettySize=auto;orthogonalLoop=1;" parent="1" source="1672d66443f91eb5-10" edge="1">
          <mxGeometry relative="1" as="geometry">
            <Array as="points">
              <mxPoint x="477" y="755" />
              <mxPoint x="477" y="755" />
            </Array>
            <mxPoint x="477" y="615" as="targetPoint" />
          </mxGeometry>
        </mxCell>
        <mxCell id="1672d66443f91eb5-19" style="rounded=0;html=1;endArrow=none;endFill=0;jettySize=auto;orthogonalLoop=1;dashed=1;" parent="1" target="1672d66443f91eb5-9" edge="1">
          <mxGeometry relative="1" as="geometry">
            <mxPoint x="951.5454545454545" y="825" as="sourcePoint" />
          </mxGeometry>
        </mxCell>
        <mxCell id="1672d66443f91eb5-20" style="edgeStyle=none;rounded=0;html=1;dashed=1;endArrow=none;endFill=0;jettySize=auto;orthogonalLoop=1;" parent="1" target="1672d66443f91eb5-6" edge="1">
          <mxGeometry relative="1" as="geometry">
            <mxPoint x="1187" y="825" as="sourcePoint" />
          </mxGeometry>
        </mxCell>
        <mxCell id="BeP2GAJUtShJ0mvzGdoW-3" value="聚宽行情API" style="ellipse;shape=cloud;whiteSpace=wrap;html=1;fontSize=16;" vertex="1" parent="1">
          <mxGeometry x="340" y="450" width="120" height="80" as="geometry" />
        </mxCell>
        <mxCell id="BeP2GAJUtShJ0mvzGdoW-4" value="" style="endArrow=classic;html=1;fontSize=16;" edge="1" parent="1" source="BeP2GAJUtShJ0mvzGdoW-3" target="BeP2GAJUtShJ0mvzGdoW-8">
          <mxGeometry width="50" height="50" relative="1" as="geometry">
            <mxPoint x="680" y="620" as="sourcePoint" />
            <mxPoint x="640" y="585" as="targetPoint" />
          </mxGeometry>
        </mxCell>
        <mxCell id="BeP2GAJUtShJ0mvzGdoW-5" value="redis主节点" style="shape=cylinder3;whiteSpace=wrap;html=1;boundedLbl=1;backgroundOutline=1;size=15;fontSize=16;" vertex="1" parent="1">
          <mxGeometry x="715" y="570" width="60" height="80" as="geometry" />
        </mxCell>
        <mxCell id="BeP2GAJUtShJ0mvzGdoW-8" value="数据同步程序" style="shape=process;whiteSpace=wrap;html=1;backgroundOutline=1;fontSize=16;" vertex="1" parent="1">
          <mxGeometry x="685" y="460" width="120" height="60" as="geometry" />
        </mxCell>
        <mxCell id="BeP2GAJUtShJ0mvzGdoW-9" value="数据过期删除&lt;br&gt;/数据校验" style="shape=process;whiteSpace=wrap;html=1;backgroundOutline=1;fontSize=16;" vertex="1" parent="1">
          <mxGeometry x="535" y="580" width="130" height="60" as="geometry" />
        </mxCell>
        <mxCell id="BeP2GAJUtShJ0mvzGdoW-10" value="" style="endArrow=classic;html=1;fontSize=16;" edge="1" parent="1" source="BeP2GAJUtShJ0mvzGdoW-8" target="BeP2GAJUtShJ0mvzGdoW-5">
          <mxGeometry width="50" height="50" relative="1" as="geometry">
            <mxPoint x="530" y="610" as="sourcePoint" />
            <mxPoint x="580" y="560" as="targetPoint" />
          </mxGeometry>
        </mxCell>
        <mxCell id="BeP2GAJUtShJ0mvzGdoW-11" value="" style="endArrow=classic;html=1;fontSize=16;" edge="1" parent="1" source="BeP2GAJUtShJ0mvzGdoW-9" target="BeP2GAJUtShJ0mvzGdoW-5">
          <mxGeometry width="50" height="50" relative="1" as="geometry">
            <mxPoint x="755" y="500" as="sourcePoint" />
            <mxPoint x="755" y="540" as="targetPoint" />
          </mxGeometry>
        </mxCell>
        <mxCell id="BeP2GAJUtShJ0mvzGdoW-13" value="历史行情数据服务" style="text;html=1;strokeColor=none;fillColor=none;align=center;verticalAlign=middle;whiteSpace=wrap;rounded=0;fontSize=16;" vertex="1" parent="1">
          <mxGeometry x="870" y="430" width="140" height="20" as="geometry" />
        </mxCell>
        <mxCell id="BeP2GAJUtShJ0mvzGdoW-14" value="redis从节点" style="shape=cylinder3;whiteSpace=wrap;html=1;boundedLbl=1;backgroundOutline=1;size=15;fontSize=16;" vertex="1" parent="1">
          <mxGeometry x="870" y="570" width="60" height="80" as="geometry" />
        </mxCell>
        <mxCell id="BeP2GAJUtShJ0mvzGdoW-15" value="同步" style="endArrow=classic;html=1;fontSize=16;startArrow=none;startFill=0;" edge="1" parent="1" source="BeP2GAJUtShJ0mvzGdoW-5" target="BeP2GAJUtShJ0mvzGdoW-14">
          <mxGeometry width="50" height="50" relative="1" as="geometry">
            <mxPoint x="480" y="595" as="sourcePoint" />
            <mxPoint x="660" y="595" as="targetPoint" />
          </mxGeometry>
        </mxCell>
        <mxCell id="BeP2GAJUtShJ0mvzGdoW-17" value="supervisor" style="shape=process;whiteSpace=wrap;html=1;backgroundOutline=1;fontSize=16;" vertex="1" parent="1">
          <mxGeometry x="757" y="700" width="120" height="60" as="geometry" />
        </mxCell>
        <mxCell id="BeP2GAJUtShJ0mvzGdoW-18" value="" style="endArrow=none;html=1;fontSize=16;startArrow=classic;startFill=1;endFill=0;" edge="1" parent="1" source="BeP2GAJUtShJ0mvzGdoW-5" target="BeP2GAJUtShJ0mvzGdoW-17">
          <mxGeometry width="50" height="50" relative="1" as="geometry">
            <mxPoint x="680" y="620" as="sourcePoint" />
            <mxPoint x="725" y="620" as="targetPoint" />
          </mxGeometry>
        </mxCell>
        <mxCell id="BeP2GAJUtShJ0mvzGdoW-21" value="保持可用" style="edgeLabel;html=1;align=center;verticalAlign=middle;resizable=0;points=[];fontSize=16;" vertex="1" connectable="0" parent="BeP2GAJUtShJ0mvzGdoW-18">
          <mxGeometry x="-0.5941" y="-4" relative="1" as="geometry">
            <mxPoint x="3.26" y="7.65" as="offset" />
          </mxGeometry>
        </mxCell>
        <mxCell id="BeP2GAJUtShJ0mvzGdoW-20" value="" style="endArrow=none;html=1;fontSize=16;startArrow=classic;startFill=1;endFill=0;" edge="1" parent="1" source="BeP2GAJUtShJ0mvzGdoW-14" target="BeP2GAJUtShJ0mvzGdoW-17">
          <mxGeometry width="50" height="50" relative="1" as="geometry">
            <mxPoint x="779" y="660" as="sourcePoint" />
            <mxPoint x="809" y="710" as="targetPoint" />
          </mxGeometry>
        </mxCell>
        <mxCell id="BeP2GAJUtShJ0mvzGdoW-22" value="保持可用" style="edgeLabel;html=1;align=center;verticalAlign=middle;resizable=0;points=[];fontSize=16;" vertex="1" connectable="0" parent="BeP2GAJUtShJ0mvzGdoW-20">
          <mxGeometry x="-0.2704" relative="1" as="geometry">
            <mxPoint as="offset" />
          </mxGeometry>
        </mxCell>
        <mxCell id="BeP2GAJUtShJ0mvzGdoW-23" value="策略" style="rounded=0;whiteSpace=wrap;html=1;fontSize=16;" vertex="1" parent="1">
          <mxGeometry x="1110" y="660" width="90" height="60" as="geometry" />
        </mxCell>
        <mxCell id="BeP2GAJUtShJ0mvzGdoW-25" value="crontab" style="shape=process;whiteSpace=wrap;html=1;backgroundOutline=1;fontSize=16;" vertex="1" parent="1">
          <mxGeometry x="540" y="700" width="120" height="60" as="geometry" />
        </mxCell>
        <mxCell id="BeP2GAJUtShJ0mvzGdoW-26" value="" style="endArrow=classic;html=1;fontSize=16;" edge="1" parent="1" source="BeP2GAJUtShJ0mvzGdoW-25" target="BeP2GAJUtShJ0mvzGdoW-9">
          <mxGeometry width="50" height="50" relative="1" as="geometry">
            <mxPoint x="810" y="690" as="sourcePoint" />
            <mxPoint x="860" y="640" as="targetPoint" />
          </mxGeometry>
        </mxCell>
        <mxCell id="BeP2GAJUtShJ0mvzGdoW-28" value="定时运行" style="edgeLabel;html=1;align=center;verticalAlign=middle;resizable=0;points=[];fontSize=16;" vertex="1" connectable="0" parent="BeP2GAJUtShJ0mvzGdoW-26">
          <mxGeometry x="-0.2667" y="2" relative="1" as="geometry">
            <mxPoint as="offset" />
          </mxGeometry>
        </mxCell>
        <mxCell id="BeP2GAJUtShJ0mvzGdoW-29" value="拆单" style="rounded=0;whiteSpace=wrap;html=1;fontSize=16;" vertex="1" parent="1">
          <mxGeometry x="1110" y="510" width="90" height="60" as="geometry" />
        </mxCell>
        <mxCell id="BeP2GAJUtShJ0mvzGdoW-30" value="接口" style="shape=process;whiteSpace=wrap;html=1;backgroundOutline=1;fontSize=16;" vertex="1" parent="1">
          <mxGeometry x="980" y="580" width="60" height="60" as="geometry" />
        </mxCell>
        <mxCell id="BeP2GAJUtShJ0mvzGdoW-31" value="" style="endArrow=classic;html=1;fontSize=16;" edge="1" parent="1" source="BeP2GAJUtShJ0mvzGdoW-14" target="BeP2GAJUtShJ0mvzGdoW-30">
          <mxGeometry width="50" height="50" relative="1" as="geometry">
            <mxPoint x="810" y="650" as="sourcePoint" />
            <mxPoint x="860" y="600" as="targetPoint" />
          </mxGeometry>
        </mxCell>
        <mxCell id="BeP2GAJUtShJ0mvzGdoW-32" value="" style="endArrow=classic;html=1;fontSize=16;" edge="1" parent="1" source="BeP2GAJUtShJ0mvzGdoW-30" target="BeP2GAJUtShJ0mvzGdoW-29">
          <mxGeometry width="50" height="50" relative="1" as="geometry">
            <mxPoint x="810" y="650" as="sourcePoint" />
            <mxPoint x="860" y="600" as="targetPoint" />
          </mxGeometry>
        </mxCell>
        <mxCell id="BeP2GAJUtShJ0mvzGdoW-33" value="" style="endArrow=classic;html=1;fontSize=16;" edge="1" parent="1" source="BeP2GAJUtShJ0mvzGdoW-30" target="BeP2GAJUtShJ0mvzGdoW-23">
          <mxGeometry width="50" height="50" relative="1" as="geometry">
            <mxPoint x="1050" y="710" as="sourcePoint" />
            <mxPoint x="1100" y="660" as="targetPoint" />
          </mxGeometry>
        </mxCell>
      </root>
    </mxGraphModel>
  </diagram>
</mxfile>
